<svg xmlns="http://www.w3.org/2000/svg" version="1.1" xmlns:xlink="http://www.w3.org/1999/xlink" xmlns:svgjs="http://svgjs.dev/svgjs" width="993" height="1195" preserveAspectRatio="none" viewBox="0 0 993 1195"><g mask="url(&quot;#SvgjsMask1294&quot;)" fill="none"><path d="M496.5 1066.08C628.7 1072.94 775.39 1063.46 865.24 966.24 953.29 870.98 938.35 726.93 929.59 597.5 921.63 479.73 893.45 366.68 818.49 275.51 734.52 173.36 628.74 70.67 496.5 70.64 364.24 70.62 259.6 174.22 174.4 275.4 97.55 366.65 54.67 478.22 52.8 597.5 50.89 718.94 80.63 841.66 164.15 929.85 249.73 1020.23 372.2 1059.63 496.5 1066.08" fill="rgba(209, 20, 133, 1)"></path><path d="M496.5 810.49C556.59 813.61 623.27 809.3 664.11 765.11 704.13 721.81 697.34 656.33 693.36 597.5 689.74 543.97 676.93 492.58 642.86 451.14 604.69 404.71 556.61 358.03 496.5 358.02 436.38 358.01 388.82 405.1 350.09 451.09 315.16 492.57 295.67 543.28 294.82 597.5 293.95 652.7 307.47 708.48 345.43 748.57 384.33 789.65 440 807.56 496.5 810.49" fill="rgba(209, 20, 133, 1)"></path></g><defs><mask id="SvgjsMask1294"><rect width="993" height="1195" fill="#ffffff"></rect></mask></defs></svg>